<svg id="Layer_1" data-name="Layer 1" xmlns="http://www.w3.org/2000/svg" viewBox="0 0 1025 1025"><defs><style>.cls-1{fill:#cc8b6a;stroke:#fff;stroke-width:6px;}.cls-1,.cls-3{stroke-miterlimit:10;}.cls-2{fill:#9dada6;}.cls-3{fill:none;stroke:#9dada6;stroke-width:9.6482px;}</style></defs><title>StellaVi-Submark1</title><path class="cls-1" d="M684.393,566.7033,538.63,222.7656q-28.7049-68.8637,44.34-68.954l-.0177-14.6827-226.6483.2807.0176,14.6827q48.1941-.0588,77.268,68.8039L633.71,686.4894l25.2188-.0314,35.9295-95.2171Z"/><path class="cls-1" d="M426.4838,265.46q52.7455,23.2778,53.4572-10.6113l14.6828-.0182,11.8568,152.4662-13.9271,1.5248q-15.532-64.3572-44.9253-99.34-38.4525-46.2618-101.3258-43.5457-44.4478.809-72.6449,24.9409-17.2962,13.5657-22.9127,36.9238a90.0941,90.0941,0,0,0-1.45,46.3114q4.1711,20.3229,20.3809,36.1163,19.9764,20.3034,95.6777,47.6984Q438.8085,484.9367,465.94,500.72q39.9318,23.6706,60.3076,55.649,20.37,33.8589,18.1807,85.4359-3.68,71.5418-57.0883,121.6786-55.644,51.6551-145.6384,47.2441-51.9655-2.1969-105.0807-32.25-20.3426-11.6346-32.5883-15.5845-12.23-3.93-22.3859,5.87-10.1637,9.8-11.6409,34.2716l-13.5521.0168-.2083-167.9172,13.5521-.0168q16.6679,68.5132,55.1105,106.8567,45.234,44.3691,115.259,46.92,55.7109,2.1921,90.7061-23.0789,22.193-15.845,30.8226-40.7024,8.2418-21.0923,5.968-50.078a85.3176,85.3176,0,0,0-16.62-42.528Q438.21,616.34,409.5933,599.8087,381.3311,584.0263,341.402,569.02,301.48,553.641,281.8855,543.49,167.3589,485.6621,166.5027,396.805q-.0785-63.2575,44.2948-105.0956,51.13-44.4887,131.7127-44.5965Q384.2971,247.0612,426.4838,265.46Z"/><path class="cls-2" d="M642.1288,259.26s119.8167,1.2639,120.7765-119.7116c0,0-.9492,120.8563,120.5483,120.7056,0,0-121.5191.2143-121.8905,118.9031C761.5631,379.1575,762.1881,260.6628,642.1288,259.26Z"/><line class="cls-3" x1="737.1931" y1="881.5307" x2="773.0977" y2="881.5307"/><line class="cls-3" x1="792.5256" y1="881.5307" x2="828.4302" y2="881.5307"/><line class="cls-3" x1="847.8581" y1="881.5307" x2="883.7627" y2="881.5307"/><line class="cls-3" x1="319.3031" y1="914.4902" x2="883.7627" y2="914.4902"/><line class="cls-3" x1="153.3057" y1="881.5307" x2="717.7652" y2="881.5307"/></svg>