<svg id="Layer_1" data-name="Layer 1" xmlns="http://www.w3.org/2000/svg" viewBox="0 0 1025 1025"><defs><style>.cls-1{fill:#9dada6;}.cls-1,.cls-2{stroke:#fff;stroke-miterlimit:10;stroke-width:6px;}.cls-2{fill:#cc8b6a;}</style></defs><title>StellaVi-Submark2*</title><path class="cls-1" d="M677.0434,604.1013,531.2807,260.1637q-28.7051-68.8638,44.34-68.954l-.0177-14.6828-226.6483.2807.0176,14.6828q48.194-.059,77.268,68.8038L626.36,723.8875l25.2188-.0315,35.9295-95.217Z"/><path class="cls-1" d="M419.1342,302.8584q52.7456,23.2777,53.4572-10.6112l14.6828-.0182L499.131,444.6952,485.2039,446.22q-15.532-64.3572-44.9253-99.34-38.4525-46.2619-101.3259-43.5457-44.4477.8088-72.6448,24.9409-17.2962,13.5657-22.9127,36.9237a90.0941,90.0941,0,0,0-1.45,46.3114q4.1711,20.323,20.3809,36.1163,19.9764,20.3034,95.6777,47.6985,73.4552,27.0091,100.5869,42.7928,39.9318,23.6706,60.3076,55.6491,20.37,33.8589,18.1807,85.4358-3.68,71.5419-57.0883,121.6787-55.644,51.6551-145.6384,47.244-51.9655-2.1967-105.0807-32.25-20.3426-11.6346-32.5883-15.5846-12.23-3.93-22.3859,5.87-10.1637,9.8-11.6409,34.2716l-13.5521.0168-.2083-167.9172,13.5521-.0168q16.6678,68.5134,55.1105,106.8567,45.234,44.3691,115.259,46.92,55.7109,2.1922,90.7061-23.0789,22.1929-15.8448,30.8226-40.7024,8.2418-21.0921,5.968-50.078a85.3176,85.3176,0,0,0-16.62-42.528q-12.8341-16.1665-41.4507-32.6982-28.2622-15.7822-68.1913-30.7885-39.9217-15.3791-59.5165-25.5307Q160.0092,523.06,159.1531,434.203q-.0785-63.2575,44.2948-105.0956,51.13-44.4886,131.7127-44.5964Q376.9475,284.4591,419.1342,302.8584Z"/><path class="cls-2" d="M634.7791,296.6585s119.8168,1.2639,120.7766-119.7117c0,0-.9492,120.8564,120.5483,120.7056,0,0-121.5191.2143-121.8905,118.9032C754.2135,416.5556,754.8385,298.0609,634.7791,296.6585Z"/></svg>