<svg id="Layer_1" data-name="Layer 1" xmlns="http://www.w3.org/2000/svg" viewBox="0 0 1025 575.3054"><defs><style>.cls-1{fill:#9dada6;}.cls-2{fill:#cc8b6a;}.cls-3{fill:none;}.cls-3,.cls-4{stroke:#cc8b6a;stroke-miterlimit:10;stroke-width:3.293px;}.cls-4{fill:#9d4e3f;}</style></defs><title>StellaVi-Primary</title><path class="cls-1" d="M220.9836,198.71q15.43,6.81,15.6386-3.1043l4.2954-.0053,3.4686,44.6032-4.0743.4461q-4.5438-18.8274-13.1426-29.0613Q215.92,198.055,197.5269,198.85q-13.0029.2367-21.2519,7.2964a18.8609,18.8609,0,0,0-6.703,10.8018,26.3562,26.3562,0,0,0-.4242,13.5482,20.2272,20.2272,0,0,0,5.9623,10.5656q5.844,5.94,27.99,13.954,21.4888,7.9014,29.4261,12.5188,11.682,6.9248,17.6427,16.28,5.9592,9.9053,5.3187,24.9938-1.0765,20.9292-16.7009,35.5965-16.2783,15.1113-42.6058,13.821-15.2022-.6427-30.7408-9.4347a54.4223,54.4223,0,0,0-9.5335-4.5592,6.1727,6.1727,0,0,0-6.5489,1.7171q-2.9733,2.867-3.4055,10.026l-3.9646.0049-.0609-49.1233,3.9646-.0049q4.876,20.0431,16.1223,31.26,13.2329,12.98,33.7184,13.7263,16.2979.6413,26.5356-6.7516a24.0565,24.0565,0,0,0,9.017-11.9073,32.9141,32.9141,0,0,0,1.7459-14.65,24.9593,24.9593,0,0,0-4.8621-12.4413q-3.7545-4.73-12.1261-9.5657a148.4341,148.4341,0,0,0-19.9491-9.007,186.8109,186.8109,0,0,1-17.4112-7.4689q-33.5043-16.9171-33.7547-42.9118-.023-18.5056,12.9582-30.7452,14.958-13.0149,38.5319-13.0465A60.8817,60.8817,0,0,1,220.9836,198.71Z"/><path class="cls-1" d="M303.7017,204.1315l.05,40.6405,22.7953-.0283.0066,5.2877-22.7953.0283.0954,76.8778q.0153,12.3383,4.5376,17.5066,4.4093,4.8423,13.22,2.2967,2.8587-.8821,10.345-4.198l1.7716,6.055A90.4124,90.4124,0,0,1,321.62,353.79q-44.5929,15.4738-44.6377-24.3961l-.0984-79.3011-15.6425.0194-.0042-3.4156q12.3309-3.0955,23.2219-15.3382a74.5366,74.5366,0,0,0,15.7144-27.2228Z"/><path class="cls-1" d="M431.988,256.1889q13.8966,14.633,15.0294,39.0807l-79.6318.0988q-1.4072,21.15,9.5178,36.3357,10.92,15.0777,27.2237,14.6141a33.1363,33.1363,0,0,0,23.6649-10.0511q9.5733-9.704,14.2877-25.5717l3.5236-.0044q-4.4862,22.1463-19.0082,34.72-14.4212,12.4631-34.352,12.4877-22.0305.0273-37.5763-16.4756-15.2216-16.2783-15.2517-40.5115-.031-25.1141,15.1494-41.9824,15.3936-17.3121,39.6291-17.3409Q418.3119,241.5579,431.988,256.1889Zm-50.2273-4.7844a30.6512,30.6512,0,0,0-7.9194,11.5752,74.7405,74.7405,0,0,0-4.2783,13.7735,94.4057,94.4057,0,0,0-1.8534,13.2191l50.9931-.0632a66.7511,66.7511,0,0,0-1.8917-17.73,43.118,43.118,0,0,0-8.282-17.7225q-6.1845-8.2546-14.88-7.9131A18.6,18.6,0,0,0,381.7607,251.4045Z"/><path class="cls-1" d="M495.3867,328.3785q.0288,23.13,15.4465,23.4423l.0046,3.7441-57.9345.0719-.0047-3.7441q15.8627-.3505,15.8339-23.4811l-.14-113.0048q.3072-19.0539-15.8829-16.0592l-.0049-3.9669,42.5093-6.4407.0654,52.7572Z"/><path class="cls-1" d="M559.2071,328.2985q.0288,23.1294,15.4465,23.4422l.0046,3.7441-57.9345.0719-.0047-3.7441q15.8626-.35,15.8339-23.4811l-.14-113.0047q.3072-19.0539-15.8829-16.0593l-.0049-3.9669,42.5093-6.4406.0654,52.7571Z"/><path class="cls-1" d="M669.6968,258.8948q4.6351,9.0249,4.5454,23.7843l.0686,55.2907q.0128,10.2433,5.5229,11.8869,6.2793,1.3154,15.0812-4.4243l1.7683,3.4134q-12.3246,8.2742-24.1127,8.29-22.244.0276-23.5874-16.38Q644.6918,347.7,635.34,352.9968q-9.0277,5.076-21.8015,4.9839-14.21-.5336-23.8031-8.7817-9.3752-8.3574-9.3905-22.5677-.0283-22.909,25.5123-31.7531,42.6088-15.03,42.2548-33.8641-.2384-14.3191-22.1561-14.2919-8.9238.0111-12.7714,3.65-1.2114,1.104-4.834,10.14a22.97,22.97,0,0,1-4.5067,7.3858,10.2176,10.2176,0,0,1-5.8347,3.42,8.9251,8.9251,0,0,1-7.27-1.5322,9.7245,9.7245,0,0,1-3.7523-6.6038q-.5589-6.1667,6.5912-12.0145,11.7717-9.5966,32.3708-9.8414Q660.866,241.2833,669.6968,258.8948Zm-47.311,38.9375a25.372,25.372,0,0,0-11.9948,11.1392,32.9994,32.9994,0,0,0-3.7239,16.3064,30.7589,30.7589,0,0,0,4.8665,15.9626q4.7427,6.9333,13.7766,6.8118,11.0117-.0136,16.8373-10.8144,6.0436-10.9125,6.0251-27.6517l-.0354-28.5263Q641.9785,288.0067,622.3858,297.8323Z"/><path class="cls-1" d="M796.766,327.3774l-10.5107,27.8555-7.3779.0092L720.3335,219.62q-8.5078-20.1456-22.6044-20.1281l-.0053-4.2953,66.3047-.0823.0054,4.2954q-21.3688.0266-12.9714,20.1722l42.6421,100.6172"/><path class="cls-1" d="M825.4466,247.9349l42.1788-6.22.1081,87.1223q.13,21.5892,15.335,22.45l.0047,3.8544-57.4935.0713-.0048-3.8543q15.4211-.7909,15.2838-22.4882l-.0765-61.6786q.0878-18.175-15.3308-15.4007Z"/><path class="cls-2" d="M824.2986,195.5417s28.1667.2971,28.3923-28.142c0,0-.2231,28.4111,28.3387,28.3756,0,0-28.5669.05-28.6542,27.9519C852.3754,223.7272,852.5223,195.8713,824.2986,195.5417Z"/><line class="cls-3" x1="141.9787" y1="391.2748" x2="820.483" y2="391.2748"/><line class="cls-3" x1="830.8321" y1="391.2748" x2="841.3358" y2="391.2748"/><line class="cls-3" x1="851.6849" y1="391.2748" x2="862.1886" y2="391.2748"/><line class="cls-3" x1="872.5377" y1="391.2748" x2="883.0414" y2="391.2748"/><line class="cls-4" x1="204.5372" y1="404.3081" x2="883.0414" y2="404.3081"/></svg>