<svg id="Layer_1" data-name="Layer 1" xmlns="http://www.w3.org/2000/svg" viewBox="0 0 1025 575.3054"><defs><style>.cls-1{fill:#9dada6;}.cls-2{fill:#cc8b6a;}</style></defs><title>StellaVi-Secondary</title><path class="cls-1" d="M220.9836,223.5q15.43,6.81,15.6386-3.1042l4.2954-.0054,3.4686,44.6033-4.0743.446q-4.5438-18.8274-13.1426-29.0612-11.2491-13.5337-29.6424-12.7391-13.0029.2365-21.2519,7.2963a18.8612,18.8612,0,0,0-6.703,10.8019,26.3559,26.3559,0,0,0-.4242,13.5481,20.2275,20.2275,0,0,0,5.9623,10.5657q5.844,5.94,27.99,13.9539,21.4888,7.9014,29.4261,12.5189,11.682,6.9246,17.6427,16.28,5.9592,9.9052,5.3187,24.9938-1.0765,20.9292-16.7009,35.5965-16.2783,15.1114-42.6058,13.821-15.2022-.6426-30.7408-9.4346a54.415,54.415,0,0,0-9.5335-4.5592,6.1723,6.1723,0,0,0-6.5489,1.7171q-2.9733,2.8668-3.4055,10.0259l-3.9646.005-.0609-49.1234,3.9646-.0049q4.876,20.0433,16.1223,31.26,13.2329,12.98,33.7184,13.7263,16.2979.6414,26.5356-6.7516a24.0561,24.0561,0,0,0,9.017-11.9073,32.9139,32.9139,0,0,0,1.7459-14.65,24.96,24.96,0,0,0-4.8621-12.4414q-3.7545-4.7294-12.1261-9.5657a148.4341,148.4341,0,0,0-19.9491-9.007,186.8109,186.8109,0,0,1-17.4112-7.4689q-33.5043-16.917-33.7547-42.9118-.023-18.5057,12.9582-30.7452,14.958-13.0149,38.5319-13.0464A60.8815,60.8815,0,0,1,220.9836,223.5Z"/><path class="cls-1" d="M303.7017,228.9208l.05,40.6406,22.7953-.0283.0066,5.2876-22.7953.0283.0954,76.8778q.0153,12.3382,4.5376,17.5066,4.4093,4.8423,13.22,2.2967,2.8587-.8821,10.345-4.198l1.7716,6.055A90.3992,90.3992,0,0,1,321.62,378.58q-44.5929,15.4739-44.6377-24.396l-.0984-79.3011-15.6425.0194-.0042-3.4157q12.3309-3.0956,23.2219-15.3382a74.5362,74.5362,0,0,0,15.7144-27.2227Z"/><path class="cls-1" d="M431.988,280.9782q13.8966,14.6329,15.0294,39.0807l-79.6318.0988q-1.4072,21.15,9.5178,36.3357,10.92,15.0777,27.2237,14.6142a33.1367,33.1367,0,0,0,23.6649-10.0511q9.5733-9.7041,14.2877-25.5718l3.5236-.0043q-4.4862,22.1462-19.0082,34.72-14.4212,12.4631-34.352,12.4877-22.0305.0275-37.5763-16.4756-15.2216-16.2781-15.2517-40.5114-.031-25.1141,15.1494-41.9825,15.3936-17.3119,39.6291-17.3409Q418.3119,266.3474,431.988,280.9782Zm-50.2273-4.7843a30.65,30.65,0,0,0-7.9194,11.5751,74.7429,74.7429,0,0,0-4.2783,13.7735,94.405,94.405,0,0,0-1.8534,13.2192l50.9931-.0633a66.7515,66.7515,0,0,0-1.8917-17.73,43.118,43.118,0,0,0-8.282-17.7225q-6.1845-8.2545-14.88-7.913A18.6,18.6,0,0,0,381.7607,276.1939Z"/><path class="cls-1" d="M495.3867,353.1679q.0288,23.1294,15.4465,23.4422l.0046,3.7441-57.9345.0719-.0047-3.7441q15.8627-.35,15.8339-23.4811l-.14-113.0047q.3072-19.0539-15.8829-16.0593l-.0049-3.9668,42.5093-6.4407.0654,52.7571Z"/><path class="cls-1" d="M559.2071,353.0878q.0288,23.13,15.4465,23.4423l.0046,3.7441-57.9345.0718-.0047-3.744q15.8626-.3505,15.8339-23.4811l-.14-113.0048q.3072-19.0539-15.8829-16.0592l-.0049-3.9669,42.5093-6.4407.0654,52.7572Z"/><path class="cls-1" d="M669.6968,283.6841q4.6351,9.0249,4.5454,23.7843l.0686,55.2907q.0128,10.2435,5.5229,11.887,6.2793,1.3152,15.0812-4.4243l1.7683,3.4134q-12.3246,8.2742-24.1127,8.29-22.244.0276-23.5874-16.38-4.2914,6.9445-13.6427,12.2415-9.0277,5.0762-21.8015,4.984-14.21-.5337-23.8031-8.7817-9.3752-8.3576-9.3905-22.5678-.0283-22.9089,25.5123-31.753,42.6088-15.03,42.2548-33.8641-.2384-14.3191-22.1561-14.292-8.9238.0111-12.7714,3.65-1.2114,1.104-4.834,10.14a22.97,22.97,0,0,1-4.5067,7.3858,10.2183,10.2183,0,0,1-5.8347,3.4206,8.9255,8.9255,0,0,1-7.27-1.5323,9.7245,9.7245,0,0,1-3.7523-6.6038q-.5589-6.1666,6.5912-12.0145,11.7717-9.5964,32.3708-9.8414Q660.866,266.0726,669.6968,283.6841Zm-47.311,38.9376a25.3713,25.3713,0,0,0-11.9948,11.1391,33,33,0,0,0-3.7239,16.3064,30.7589,30.7589,0,0,0,4.8665,15.9626q4.7427,6.9333,13.7766,6.8119,11.0117-.0136,16.8373-10.8145,6.0436-10.9124,6.0251-27.6517l-.0354-28.5262Q641.9785,312.7961,622.3858,322.6217Z"/><path class="cls-1" d="M796.766,352.1668l-10.5107,27.8554-7.3779.0092-58.5439-135.622q-8.5078-20.1455-22.6044-20.128l-.0053-4.2954,66.3047-.0822.0054,4.2953q-21.3688.0266-12.9714,20.1722l42.6421,100.6172"/><path class="cls-1" d="M825.4466,272.7242l42.1788-6.22.1081,87.1224q.13,21.5892,15.335,22.45l.0047,3.8543-57.4935.0713-.0048-3.8543q15.4211-.791,15.2838-22.4881l-.0765-61.6786q.0878-18.1751-15.3308-15.4007Z"/><path class="cls-2" d="M824.2986,220.331s28.1667.2971,28.3923-28.142c0,0-.2231,28.4111,28.3387,28.3757,0,0-28.5669.05-28.6542,27.9519C852.3754,248.5166,852.5223,220.6607,824.2986,220.331Z"/></svg>